<svg width="14" height="12" viewBox="0 0 14 12" fill="none" xmlns="http://www.w3.org/2000/svg">
<path fill-rule="evenodd" clip-rule="evenodd" d="M0.869191 3.56878C0.682428 5.30405 0.690753 7.30537 0.950636 9.03359C1.09443 9.98985 1.87488 10.7229 2.83826 10.8067L3.84508 10.8942C5.94445 11.0767 8.05569 11.0767 10.1551 10.8942L11.1619 10.8067C12.1253 10.7229 12.9057 9.98985 13.0495 9.03359C13.3094 7.30536 13.3177 5.30416 13.131 3.56889C13.1068 3.36771 13.0797 3.16681 13.0495 2.96624C12.9057 2.00998 12.1253 1.27689 11.1619 1.19314L10.155 1.10562C8.05569 0.923127 5.94445 0.923127 3.84508 1.10562L2.83826 1.19314C1.87488 1.27689 1.09443 2.00998 0.950636 2.96624C0.920481 3.16677 0.893332 3.36764 0.869191 3.56878ZM3.93168 2.10186C5.97342 1.92438 8.02671 1.92438 10.0684 2.10186L11.0753 2.18938C11.5782 2.2331 11.9856 2.61578 12.0606 3.11495C12.0684 3.16679 12.076 3.21865 12.0834 3.27053L8.37603 5.33016C7.5203 5.80557 6.47978 5.80557 5.62405 5.33016L1.91676 3.27056C1.92414 3.21866 1.93172 3.16679 1.93952 3.11495C2.01458 2.61578 2.42198 2.2331 2.92486 2.18938L3.93168 2.10186ZM12.2057 4.34651C12.335 5.85834 12.2867 7.38158 12.0606 8.88488C11.9856 9.38405 11.5782 9.76673 11.0753 9.81045L10.0685 9.89797C8.02671 10.0755 5.97342 10.0755 3.93168 9.89797L2.92486 9.81045C2.42198 9.76673 2.01458 9.38405 1.93952 8.88488C1.71346 7.38159 1.66508 5.85836 1.7944 4.34653L5.13841 6.20432C6.29616 6.84752 7.70392 6.84752 8.86168 6.20432L12.2057 4.34651Z" fill="white"/>
</svg>
