<svg width="20" height="20" viewBox="0 0 20 20" fill="none" xmlns="http://www.w3.org/2000/svg">
<path d="M13.9999 5.00053C13.9999 4.44825 14.4477 4.00053 14.9999 4.00053C15.5522 4.00053 15.9999 4.44825 15.9999 5.00053C15.9999 5.55282 15.5522 6.00053 14.9999 6.00053C14.4477 6.00053 13.9999 5.55282 13.9999 5.00053Z" fill="white"/>
<path fill-rule="evenodd" clip-rule="evenodd" d="M9.99994 5.25053C7.37659 5.25053 5.24994 7.37718 5.24994 10.0005C5.24994 12.6239 7.37659 14.7505 9.99994 14.7505C12.6233 14.7505 14.7499 12.6239 14.7499 10.0005C14.7499 7.37718 12.6233 5.25053 9.99994 5.25053ZM6.74994 10.0005C6.74994 8.20561 8.20501 6.75053 9.99994 6.75053C11.7949 6.75053 13.2499 8.20561 13.2499 10.0005C13.2499 11.7955 11.7949 13.2505 9.99994 13.2505C8.20501 13.2505 6.74994 11.7955 6.74994 10.0005Z" fill="white"/>
<path fill-rule="evenodd" clip-rule="evenodd" d="M15.2582 0.833549C11.7916 0.446109 8.20828 0.446109 4.74171 0.833549C2.72965 1.05843 1.10532 2.64344 0.868765 4.66597C0.454227 8.21026 0.454227 11.7908 0.868765 15.3351C1.10532 17.3576 2.72965 18.9426 4.74171 19.1675C8.20828 19.555 11.7916 19.555 15.2582 19.1675C17.2702 18.9426 18.8946 17.3576 19.1311 15.3351C19.5457 11.7908 19.5457 8.21026 19.1311 4.66597C18.8946 2.64344 17.2703 1.05843 15.2582 0.833549ZM4.90832 2.32427C8.26416 1.9492 11.7357 1.9492 15.0916 2.32427C16.4217 2.47293 17.4872 3.52254 17.6413 4.84022C18.0423 8.26874 18.0423 11.7323 17.6413 15.1609C17.4872 16.4785 16.4217 17.5281 15.0916 17.6768C11.7357 18.0519 8.26417 18.0519 4.90832 17.6768C3.57821 17.5281 2.51272 16.4785 2.35861 15.1609C1.95761 11.7323 1.95761 8.26874 2.35861 4.84022C2.51272 3.52254 3.57821 2.47293 4.90832 2.32427Z" fill="white"/>
</svg>
