<svg width="526" height="320" viewBox="0 0 526 320" fill="none" xmlns="http://www.w3.org/2000/svg">
<path opacity="0.05" d="M293.804 -14.4721C336.424 -17.9483 361.973 31.8393 334.296 64.4363L83.5741 359.727C61.4325 385.805 19.8969 381.01 4.27861 350.574L-131.091 86.774C-146.709 56.338 -126.384 19.7995 -92.2874 17.0185L293.804 -14.4721Z" fill="white"/>
<path opacity="0.1" d="M181.625 -13.3523C222.017 -13.2717 244.254 33.6198 218.757 64.9471L60.956 258.834C38.6806 286.204 -4.52139 280.987 -19.6423 249.102L-111.827 54.7165C-126.948 22.8317 -103.65 -13.9216 -68.3615 -13.8512L181.625 -13.3523Z" fill="white"/>
<path opacity="0.15" d="M85.5346 -14.2816C126.719 -14.9301 149.539 33.1874 122.975 64.6675L9.36903 199.302C-13.1503 225.99 -55.7233 220.466 -70.686 188.915L-133.22 57.0538C-148.182 25.5027 -125.52 -10.9582 -90.6052 -11.508L85.5346 -14.2816Z" fill="white"/>
</svg>
