<svg width="22" height="19" viewBox="0 0 22 19" fill="none" xmlns="http://www.w3.org/2000/svg">
<path fill-rule="evenodd" clip-rule="evenodd" d="M14.0215 0.342669C14.5299 0.255586 15.0992 0.22651 15.635 0.317153C16.5918 0.479035 17.4757 0.923764 18.1744 1.59052C18.6311 1.60085 19.0799 1.51088 19.477 1.38262C19.8131 1.27407 20.097 1.14299 20.296 1.03936C20.3949 0.987827 20.4713 0.943868 20.521 0.914108C20.5458 0.899252 20.5638 0.888008 20.5745 0.881217L20.5841 0.875155C20.8809 0.677427 21.2761 0.715911 21.529 0.967416C21.7819 1.21898 21.8226 1.6139 21.6264 1.9118C21.4187 2.2271 21.1303 2.78917 20.8073 3.41893C20.7565 3.51795 20.7048 3.61864 20.6525 3.72031C20.4672 4.08027 20.2772 4.44409 20.1001 4.75622C19.9889 4.95221 19.87 5.15118 19.7501 5.32312V5.5969C19.7577 6.60253 19.6424 7.60291 19.4083 8.57613C19.261 9.18847 19.0667 9.79006 18.8265 10.3754C18.2041 11.8921 17.2857 13.2695 16.1249 14.4273C14.9642 15.5851 13.5844 16.4999 12.0662 17.1184C10.5492 17.7364 8.9245 18.0462 7.28665 18.0298C4.91234 18.0319 2.58798 17.3478 0.593255 16.0599C0.299454 15.8702 0.175755 15.5026 0.295092 15.1739C0.414428 14.8451 0.745121 14.6425 1.09219 14.6855C1.39255 14.7226 1.69496 14.7408 1.99762 14.7398C3.08507 14.7367 4.15181 14.4965 5.12567 14.0438C4.81612 13.9029 4.52058 13.7292 4.24443 13.5244C3.43271 12.9225 2.8288 12.0825 2.51673 11.1214C2.43564 10.8716 2.49108 10.5977 2.66289 10.3991C2.66597 10.3955 2.66908 10.392 2.67221 10.3885C2.48869 10.2249 2.31696 10.0467 2.15886 9.85505C1.44754 8.99284 1.05587 7.91141 1.05009 6.79367L1.05007 6.78979L1.05008 6.73979C1.05008 6.47393 1.19083 6.22793 1.42003 6.09321C1.47813 6.05906 1.53972 6.03336 1.60307 6.01611C1.26473 5.34103 1.08879 4.59559 1.09007 3.83933C1.08968 2.98256 1.31347 2.14059 1.73923 1.39709C1.86214 1.18246 2.08297 1.04222 2.3295 1.02224C2.57603 1.00227 2.81656 1.10512 2.97242 1.29717C3.93498 2.48318 5.13626 3.45343 6.49825 4.1449C7.19839 4.50036 7.93294 4.77806 8.68874 4.97449C9.11247 5.08462 9.54288 5.16921 9.97765 5.22763C9.9585 4.50438 10.1013 3.78151 10.4011 3.11357C10.8407 2.13375 11.5932 1.32757 12.5404 0.82148C12.9416 0.607151 13.4741 0.43644 14.0215 0.342669ZM2.74335 7.89016C2.873 8.25505 3.06586 8.59737 3.31592 8.90047C3.80724 9.49601 4.48919 9.90357 5.24641 10.0542C5.58369 10.1213 5.83213 10.4092 5.84916 10.7527C5.86618 11.0961 5.64743 11.4072 5.31843 11.5073C5.04594 11.5902 4.76676 11.648 4.48441 11.6801C4.67099 11.9206 4.89047 12.1361 5.13787 12.3195C5.69906 12.7356 6.376 12.9665 7.07451 12.9799C7.39143 12.986 7.6703 13.1907 7.77112 13.4912C7.87195 13.7917 7.77296 14.1232 7.52386 14.3192C6.47469 15.1447 5.26149 15.7204 3.97594 16.0143C5.04142 16.3555 6.15887 16.5312 7.28916 16.5298L7.29786 16.5298C8.73792 16.5447 10.1665 16.2726 11.5002 15.7293C12.8339 15.186 14.046 14.3823 15.0656 13.3653C16.0853 12.3483 16.892 11.1383 17.4388 9.80595C17.6498 9.29173 17.8205 8.76327 17.9499 8.22536C18.1557 7.36959 18.257 6.48992 18.2501 5.60566L18.2501 5.59979V5.06979C18.2501 4.88794 18.3161 4.71228 18.436 4.57551C18.5053 4.49647 18.6264 4.31391 18.7955 4.01601C18.9561 3.73288 19.1339 3.39298 19.3188 3.03379C19.33 3.01207 19.3412 2.99024 19.3525 2.9683C18.8729 3.07245 18.3293 3.12703 17.7595 3.06545C17.579 3.04595 17.4118 2.96166 17.2887 2.82822C16.7858 2.28288 16.1162 1.91988 15.3848 1.79614C15.0602 1.74123 14.6679 1.7538 14.2748 1.82114C13.8477 1.8943 13.476 2.02231 13.2473 2.14448C12.593 2.49405 12.0733 3.0509 11.7696 3.72768C11.4659 4.40447 11.3954 5.16292 11.5692 5.88407C11.6246 6.11399 11.5683 6.35656 11.4174 6.53859C11.2664 6.72062 11.0384 6.82078 10.8022 6.80884C9.95877 6.76618 9.12429 6.63753 8.31142 6.42626C7.45152 6.20277 6.61579 5.88682 5.81921 5.4824C4.64643 4.88699 3.57838 4.1099 2.65354 3.18221C2.61135 3.39782 2.58993 3.61785 2.59008 3.8393L2.59007 3.84122C2.58903 4.39193 2.72418 4.93437 2.98349 5.42021C3.2428 5.90606 3.61822 6.32026 4.07633 6.62591C4.35436 6.81141 4.47608 7.15849 4.37483 7.47701C4.27358 7.79553 3.97378 8.00861 3.63968 7.99952C3.33708 7.99128 3.03702 7.95448 2.74335 7.89016Z" fill="white"/>
</svg>
