<svg width="28" height="28" viewBox="0 0 28 28" fill="none" xmlns="http://www.w3.org/2000/svg">
<path d="M14.0001 0.666992C6.64008 0.666992 0.666748 6.64033 0.666748 14.0003C0.666748 21.3603 6.64008 27.3337 14.0001 27.3337C21.3601 27.3337 27.3334 21.3603 27.3334 14.0003C27.3334 6.64033 21.3601 0.666992 14.0001 0.666992ZM12.6667 24.5737C7.40008 23.9203 3.33341 19.4403 3.33341 14.0003C3.33341 13.1737 3.44008 12.387 3.61341 11.6137L10.0001 18.0003V19.3337C10.0001 20.8003 11.2001 22.0003 12.6667 22.0003V24.5737ZM21.8667 21.187C21.5201 20.107 20.5334 19.3337 19.3334 19.3337H18.0001V15.3337C18.0001 14.6003 17.4001 14.0003 16.6667 14.0003H8.66675V11.3337H11.3334C12.0667 11.3337 12.6667 10.7337 12.6667 10.0003V7.33366H15.3334C16.8001 7.33366 18.0001 6.13366 18.0001 4.66699V4.12033C21.9067 5.70699 24.6667 9.53366 24.6667 14.0003C24.6667 16.7737 23.6001 19.2937 21.8667 21.187Z" fill="#9A4CEC"/>
</svg>
