<svg width="28" height="28" viewBox="0 0 28 28" fill="none" xmlns="http://www.w3.org/2000/svg">
<path d="M23.3332 8.66699H4.6665C3.93317 8.66699 3.33317 8.06699 3.33317 7.33366C3.33317 6.60033 3.93317 6.00033 4.6665 6.00033H23.3332C24.0665 6.00033 24.6665 6.60033 24.6665 7.33366C24.6665 8.06699 24.0665 8.66699 23.3332 8.66699ZM20.6665 0.666992H7.33317C6.59984 0.666992 5.99984 1.26699 5.99984 2.00033C5.99984 2.73366 6.59984 3.33366 7.33317 3.33366H20.6665C21.3998 3.33366 21.9998 2.73366 21.9998 2.00033C21.9998 1.26699 21.3998 0.666992 20.6665 0.666992ZM27.3332 14.0003V24.667C27.3332 26.1337 26.1332 27.3337 24.6665 27.3337H3.33317C1.8665 27.3337 0.666504 26.1337 0.666504 24.667V14.0003C0.666504 12.5337 1.8665 11.3337 3.33317 11.3337H24.6665C26.1332 11.3337 27.3332 12.5337 27.3332 14.0003ZM18.2532 18.747L11.3332 14.9737V23.6803L18.2532 19.9203C18.7198 19.667 18.7198 19.0003 18.2532 18.747Z" fill="#9A4CEC"/>
</svg>
